HIERARCHY
ROOT Hips
{
	OFFSET 0.000000 100.481300 0.000000
	CHANNELS 6 Xposition Yposition Zposition Xrotation Yrotation Zrotation
	JOINT Spine
	{
		OFFSET -0.279200 12.230698 -2.892100
		CHANNELS 3 Xrotation Yrotation Zrotation
		JOINT Spine1
		{
			OFFSET -0.325700 14.269203 -3.374200
			CHANNELS 3 Xrotation Yrotation Zrotation
			JOINT Spine2
			{
				OFFSET -0.372300 16.307602 -0.352600
				CHANNELS 3 Xrotation Yrotation Zrotation
				JOINT Neck
				{
					OFFSET -0.418800 17.814194 8.416900
					CHANNELS 3 Xrotation Yrotation Zrotation
					JOINT Head
					{
						OFFSET 0.000000 7.031097 3.806800
						CHANNELS 3 Xrotation Yrotation Zrotation
						JOINT HeadTop_End
						{
							OFFSET 0.000000 24.646606 12.978600
							CHANNELS 3 Xrotation Yrotation Zrotation
							End Site
							{
								OFFSET 0.000000 27.854965 0.000000
							}
						}
					}
				}
				JOINT LeftShoulder
				{
					OFFSET 16.952999 14.495407 -7.737500
					CHANNELS 3 Xrotation Yrotation Zrotation
					JOINT LeftArm
					{
						OFFSET 9.308998 -2.777710 0.208600
						CHANNELS 3 Xrotation Yrotation Zrotation
						JOINT LeftForeArm
						{
							OFFSET 29.972298 0.000000 0.000000
							CHANNELS 3 Xrotation Yrotation Zrotation
							JOINT LeftHand
							{
								OFFSET 26.026505 0.000000 0.000000
								CHANNELS 3 Xrotation Yrotation Zrotation
								JOINT LeftHandThumb1
								{
									OFFSET 12.240501 -7.147949 9.207150
									CHANNELS 3 Xrotation Yrotation Zrotation
									JOINT LeftHandThumb2
									{
										OFFSET 4.138618 -2.389435 2.389433
										CHANNELS 3 Xrotation Yrotation Zrotation
										JOINT LeftHandThumb3
										{
											OFFSET 2.726913 -1.574387 1.574386
											CHANNELS 3 Xrotation Yrotation Zrotation
											JOINT LeftHandThumb4
											{
												OFFSET 3.941010 -2.275345 2.275342
												CHANNELS 3 Xrotation Yrotation Zrotation
												End Site
												{
													OFFSET -0.005798 5.087799 0.009903
												}
											}
										}
									}
								}
								JOINT LeftHandIndex1
								{
									OFFSET 24.424698 -1.985611 5.953459
									CHANNELS 3 Xrotation Yrotation Zrotation
									JOINT LeftHandIndex2
									{
										OFFSET 6.426697 0.000000 0.000000
										CHANNELS 3 Xrotation Yrotation Zrotation
										JOINT LeftHandIndex3
										{
											OFFSET 5.337898 0.000000 0.000000
											CHANNELS 3 Xrotation Yrotation Zrotation
											JOINT LeftHandIndex4
											{
												OFFSET 4.409401 0.000000 0.000000
												CHANNELS 3 Xrotation Yrotation Zrotation
												End Site
												{
													OFFSET 0.000000 4.409363 0.014373
												}
											}
										}
									}
								}
								JOINT LeftHandMiddle1
								{
									OFFSET 23.810104 0.000000 0.000000
									CHANNELS 3 Xrotation Yrotation Zrotation
									JOINT LeftHandMiddle2
									{
										OFFSET 7.176498 0.000000 0.000000
										CHANNELS 3 Xrotation Yrotation Zrotation
										JOINT LeftHandMiddle3
										{
											OFFSET 6.774902 0.000000 0.000000
											CHANNELS 3 Xrotation Yrotation Zrotation
											JOINT LeftHandMiddle4
											{
												OFFSET 5.403328 0.000000 0.000000
												CHANNELS 3 Xrotation Yrotation Zrotation
												End Site
												{
													OFFSET -0.027702 5.403244 0.017414
												}
											}
										}
									}
								}
								JOINT LeftHandRing1
								{
									OFFSET 22.908401 -0.839279 -6.020567
									CHANNELS 3 Xrotation Yrotation Zrotation
									JOINT LeftHandRing2
									{
										OFFSET 6.337502 0.000000 0.000000
										CHANNELS 3 Xrotation Yrotation Zrotation
										JOINT LeftHandRing3
										{
											OFFSET 5.779297 0.000000 0.000000
											CHANNELS 3 Xrotation Yrotation Zrotation
											JOINT LeftHandRing4
											{
												OFFSET 4.965698 0.000000 0.000000
												CHANNELS 3 Xrotation Yrotation Zrotation
												End Site
												{
													OFFSET 0.000000 4.965668 0.016186
												}
											}
										}
									}
								}
								JOINT LeftHandPinky1
								{
									OFFSET 20.037003 -1.530319 -10.950146
									CHANNELS 3 Xrotation Yrotation Zrotation
									JOINT LeftHandPinky2
									{
										OFFSET 5.254700 0.000000 0.000000
										CHANNELS 3 Xrotation Yrotation Zrotation
										JOINT LeftHandPinky3
										{
											OFFSET 4.810204 0.000000 0.000000
											CHANNELS 3 Xrotation Yrotation Zrotation
											JOINT LeftHandPinky4
											{
												OFFSET 3.647202 0.000000 0.000000
												CHANNELS 3 Xrotation Yrotation Zrotation
												End Site
												{
													OFFSET 0.000000 3.647186 0.011889
												}
											}
										}
									}
								}
							}
						}
					}
				}
				JOINT RightShoulder
				{
					OFFSET -15.141001 14.495407 -7.737500
					CHANNELS 3 Xrotation Yrotation Zrotation
					JOINT RightArm
					{
						OFFSET -9.308998 -2.777710 0.208500
						CHANNELS 3 Xrotation Yrotation Zrotation
						JOINT RightForeArm
						{
							OFFSET -29.972300 0.000000 0.000000
							CHANNELS 3 Xrotation Yrotation Zrotation
							JOINT RightHand
							{
								OFFSET -26.026505 0.000000 0.000000
								CHANNELS 3 Xrotation Yrotation Zrotation
								JOINT RightHandThumb1
								{
									OFFSET -12.240601 -7.148026 9.207092
									CHANNELS 3 Xrotation Yrotation Zrotation
									JOINT RightHandThumb2
									{
										OFFSET -4.138618 -2.389435 2.389433
										CHANNELS 3 Xrotation Yrotation Zrotation
										JOINT RightHandThumb3
										{
											OFFSET -2.726974 -1.574417 1.574421
											CHANNELS 3 Xrotation Yrotation Zrotation
											JOINT RightHandThumb4
											{
												OFFSET -3.941010 -2.275345 2.275343
												CHANNELS 3 Xrotation Yrotation Zrotation
												End Site
												{
													OFFSET 0.005814 5.087799 0.009927
												}
											}
										}
									}
								}
								JOINT RightHandIndex1
								{
									OFFSET -24.424698 -1.985657 5.953444
									CHANNELS 3 Xrotation Yrotation Zrotation
									JOINT RightHandIndex2
									{
										OFFSET -6.426697 0.000000 0.000000
										CHANNELS 3 Xrotation Yrotation Zrotation
										JOINT RightHandIndex3
										{
											OFFSET -5.337898 0.000000 0.000000
											CHANNELS 3 Xrotation Yrotation Zrotation
											JOINT RightHandIndex4
											{
												OFFSET -4.409401 0.000000 0.000000
												CHANNELS 3 Xrotation Yrotation Zrotation
												End Site
												{
													OFFSET 0.000000 4.409363 0.014408
												}
											}
										}
									}
								}
								JOINT RightHandMiddle1
								{
									OFFSET -23.810097 0.000000 0.000000
									CHANNELS 3 Xrotation Yrotation Zrotation
									JOINT RightHandMiddle2
									{
										OFFSET -7.176498 0.000000 0.000000
										CHANNELS 3 Xrotation Yrotation Zrotation
										JOINT RightHandMiddle3
										{
											OFFSET -6.774902 0.000000 0.000000
											CHANNELS 3 Xrotation Yrotation Zrotation
											JOINT RightHandMiddle4
											{
												OFFSET -5.403328 0.000000 0.000000
												CHANNELS 3 Xrotation Yrotation Zrotation
												End Site
												{
													OFFSET 0.027702 5.403244 0.017457
												}
											}
										}
									}
								}
								JOINT RightHandRing1
								{
									OFFSET -22.908302 -0.839325 -6.020576
									CHANNELS 3 Xrotation Yrotation Zrotation
									JOINT RightHandRing2
									{
										OFFSET -6.337502 0.000000 0.000000
										CHANNELS 3 Xrotation Yrotation Zrotation
										JOINT RightHandRing3
										{
											OFFSET -5.779297 0.000000 0.000000
											CHANNELS 3 Xrotation Yrotation Zrotation
											JOINT RightHandRing4
											{
												OFFSET -4.965698 0.000000 0.000000
												CHANNELS 3 Xrotation Yrotation Zrotation
												End Site
												{
													OFFSET 0.000000 4.965668 0.016226
												}
											}
										}
									}
								}
								JOINT RightHandPinky1
								{
									OFFSET -20.037003 -1.530334 -10.950259
									CHANNELS 3 Xrotation Yrotation Zrotation
									JOINT RightHandPinky2
									{
										OFFSET -5.254700 0.000000 0.000000
										CHANNELS 3 Xrotation Yrotation Zrotation
										JOINT RightHandPinky3
										{
											OFFSET -4.810204 0.000000 0.000000
											CHANNELS 3 Xrotation Yrotation Zrotation
											JOINT RightHandPinky4
											{
												OFFSET -3.647202 0.000000 0.000000
												CHANNELS 3 Xrotation Yrotation Zrotation
												End Site
												{
													OFFSET 0.000000 3.647186 0.011917
												}
											}
										}
									}
								}
							}
						}
					}
				}
			}
		}
	}
	JOINT LeftUpLeg
	{
		OFFSET 15.427100 -6.655098 0.678600
		CHANNELS 3 Xrotation Yrotation Zrotation
		JOINT LeftLeg
		{
			OFFSET 4.081073 -39.591068 13.024000
			CHANNELS 3 Xrotation Yrotation Zrotation
			JOINT LeftFoot
			{
				OFFSET -4.081074 -37.707932 -15.979700
				CHANNELS 3 Xrotation Yrotation Zrotation
				JOINT LeftToeBase
				{
					OFFSET 5.346399 -15.068900 20.645000
					CHANNELS 3 Xrotation Yrotation Zrotation
					JOINT LeftToe_End
					{
						OFFSET 2.754700 0.931300 11.300900
						CHANNELS 3 Xrotation Yrotation Zrotation
						End Site
						{
							OFFSET 0.000000 11.669021 0.000000
						}
					}
				}
			}
		}
	}
	JOINT RightUpLeg
	{
		OFFSET -15.569500 -6.655098 0.678600
		CHANNELS 3 Xrotation Yrotation Zrotation
		JOINT RightLeg
		{
			OFFSET -4.081825 -39.591045 13.023800
			CHANNELS 3 Xrotation Yrotation Zrotation
			JOINT RightFoot
			{
				OFFSET 4.081824 -37.707954 -15.979600
				CHANNELS 3 Xrotation Yrotation Zrotation
				JOINT RightToeBase
				{
					OFFSET -5.346400 -15.068900 20.645000
					CHANNELS 3 Xrotation Yrotation Zrotation
					JOINT RightToe_End
					{
						OFFSET -2.754700 0.931300 11.300900
						CHANNELS 3 Xrotation Yrotation Zrotation
						End Site
						{
							OFFSET 0.000000 11.669021 0.000000
						}
					}
				}
			}
		}
	}
}
MOTION
Frames: 4
Frame Time: 0.033333
1.750921 83.903931 -0.363717 -9.984608 -59.030470 -7.170158 3.013009 1.158219 -0.210461 5.959448 1.978388 2.740538 5.971417 1.940522 2.743197 2.377246 5.670688 -4.082315 5.389648 26.764590 -16.720762 -0.000000 -0.000001 -0.000001 0.555232 1.340871 -5.554990 -35.300982 14.559812 -42.895979 0.000087 -98.738007 0.000088 -10.742998 0.052178 1.649532 -6.747715 3.075035 19.705622 3.939059 7.948715 0.746805 -0.579487 1.575002 2.538705 -0.000001 -0.000001 0.000000 0.039114 0.734382 -6.097227 0.039096 0.734394 -6.097245 0.039153 0.734383 -6.097230 0.000000 0.000001 0.000001 0.037379 0.718041 -5.961048 0.053217 0.856233 -7.113876 0.056164 0.879482 -7.308067 0.000002 0.000001 -0.000002 0.055361 0.873255 -7.256029 0.078044 1.035854 -8.616827 0.082717 1.066277 -8.871978 0.000005 -0.000002 -0.000002 0.810909 5.216423 -9.719458 0.102004 -2.832140 -10.693145 0.109072 1.223118 -10.190433 -0.000001 -0.000001 0.000000 -1.787235 -16.289849 -4.030618 -85.755805 58.229985 107.693273 0.000938 95.639778 -0.000967 16.334753 11.723599 1.087614 -0.218065 -8.294429 -20.435426 4.637195 -8.634125 -0.225408 -1.273763 0.137312 -2.094877 0.000000 -0.000000 0.000001 0.023846 -0.576500 4.736076 0.023840 -0.576503 4.736092 0.023839 -0.576483 4.736086 0.000002 0.000001 -0.000000 0.007556 -0.324541 2.663975 0.048655 -0.822822 6.768011 0.060326 -0.915857 7.537582 -0.000001 -0.000001 0.000000 0.001497 -0.144288 1.183966 0.096087 -1.154259 9.516449 0.130120 -1.341564 11.079259 0.000001 0.000000 0.000000 0.000002 0.000002 -0.000004 0.219958 -1.738402 14.420765 0.219946 -1.738395 14.420741 0.000001 -0.000001 -0.000001 -12.077864 15.308412 27.767550 28.290384 -8.881584 0.139200 -11.548092 4.612164 -21.804491 -4.630560 -0.000023 -0.000006 0.000000 0.000001 0.000000 -16.767850 -8.741336 -22.445002 38.815955 10.774046 -4.070187 -20.226680 2.363460 10.329557 -2.376569 0.000007 0.000004 -0.000000 0.000000 0.000000 
1.092429 83.928398 -0.569006 -8.391419 -57.116689 -5.948468 2.718722 0.813549 -0.264120 5.387114 1.256313 2.640116 5.393962 1.225172 2.642081 2.831656 5.478373 -3.629002 6.521759 26.279498 -16.572921 -0.000000 -0.000001 0.000000 0.514875 1.833995 -5.706502 -32.883140 14.962142 -43.665427 0.000193 -98.505712 0.000223 -10.462441 0.002324 1.817004 -6.747709 3.075035 19.705627 3.939058 7.948716 0.746806 -0.579487 1.575004 2.538707 0.000001 -0.000000 -0.000001 0.039114 0.734388 -6.097228 0.039091 0.734398 -6.097247 0.039149 0.734387 -6.097230 -0.000000 0.000000 -0.000001 0.037381 0.718047 -5.961046 0.053220 0.856234 -7.113878 0.056163 0.879482 -7.308067 -0.000001 0.000003 -0.000001 0.055364 0.873260 -7.256028 0.078044 1.035852 -8.616827 0.082723 1.066277 -8.871973 0.000002 -0.000000 0.000002 0.810914 5.216428 -9.719455 0.102002 -2.832139 -10.693147 0.109074 1.223120 -10.190432 -0.000000 -0.000000 -0.000001 -1.736426 -15.727547 -4.133232 -83.777618 58.210752 106.689003 0.000932 95.731897 -0.000921 16.714941 11.145630 2.043066 -0.218064 -8.294425 -20.435424 4.637193 -8.634129 -0.225402 -1.273760 0.137314 -2.094883 0.000000 -0.000001 0.000003 0.023847 -0.576496 4.736076 0.023841 -0.576505 4.736097 0.023840 -0.576485 4.736086 -0.000001 0.000001 -0.000001 0.007556 -0.324542 2.663978 0.048655 -0.822821 6.768010 0.060327 -0.915858 7.537582 0.000001 -0.000001 -0.000002 0.001500 -0.144289 1.183968 0.096086 -1.154259 9.516449 0.130122 -1.341564 11.079262 0.000000 -0.000001 0.000000 0.000002 0.000002 -0.000000 0.219958 -1.738401 14.420766 0.219948 -1.738398 14.420739 0.000000 -0.000001 0.000000 -13.684194 14.725051 28.073052 28.144776 -9.764376 0.634166 -11.029698 3.854771 -22.032906 -4.726826 -0.000030 -0.000001 0.000000 0.000001 0.000000 -15.733488 -9.411188 -22.073037 38.662757 10.688277 -3.475971 -21.218985 0.992179 9.586351 -2.506178 0.000010 -0.000000 0.000000 -0.000001 0.000000 
0.447223 84.112305 -0.875289 -4.624292 -54.756189 -2.920723 2.068795 0.503573 -0.313660 4.098817 0.655629 2.571973 4.102093 0.633459 2.573065 3.226594 5.111633 -3.341894 8.807041 24.407705 -16.497291 -0.000001 0.000000 0.000000 0.495452 2.472645 -6.442320 -28.101931 14.661310 -45.646537 -0.000027 -98.299154 0.000010 -9.758399 -0.105887 2.180082 -6.747711 3.075037 19.705629 3.939059 7.948709 0.746807 -0.579489 1.575004 2.538708 -0.000000 -0.000002 0.000002 0.039113 0.734388 -6.097224 0.039097 0.734393 -6.097247 0.039151 0.734385 -6.097227 0.000001 0.000003 -0.000001 0.037382 0.718045 -5.961043 0.053219 0.856234 -7.113879 0.056166 0.879481 -7.308069 0.000003 0.000001 0.000002 0.055363 0.873258 -7.256028 0.078046 1.035852 -8.616831 0.082714 1.066278 -8.871979 0.000002 0.000000 0.000000 0.810912 5.216425 -9.719452 0.102004 -2.832137 -10.693145 0.109076 1.223117 -10.190427 0.000000 0.000001 -0.000002 -1.884419 -16.161375 -4.679134 -82.156295 59.123361 106.572439 -0.000274 95.892625 0.000271 17.327449 10.003860 4.154271 -0.218066 -8.294426 -20.435422 4.637190 -8.634124 -0.225410 -1.273763 0.137313 -2.094879 -0.000000 -0.000002 0.000003 0.023848 -0.576499 4.736080 0.023840 -0.576504 4.736097 0.023838 -0.576483 4.736085 0.000001 -0.000002 0.000000 0.007557 -0.324542 2.663980 0.048656 -0.822818 6.768011 0.060327 -0.915856 7.537582 0.000000 0.000000 -0.000001 0.001500 -0.144293 1.183972 0.096087 -1.154264 9.516447 0.130120 -1.341564 11.079262 0.000001 -0.000000 -0.000001 0.000002 0.000000 0.000001 0.219959 -1.738402 14.420766 0.219948 -1.738399 14.420742 -0.000000 -0.000001 -0.000000 -16.897702 13.293954 28.321653 28.085743 -9.647905 1.155185 -9.625302 2.032548 -22.728144 -5.573564 0.000011 0.000001 -0.000000 0.000000 -0.000000 -15.625832 -9.825167 -21.431805 38.232906 10.563597 -2.730826 -22.100921 -1.100160 8.611179 -2.635954 -0.000011 -0.000003 -0.000001 -0.000002 -0.000000 
0.064496 84.471207 -1.329922 0.718987 -51.959766 1.220713 1.229938 0.471511 -0.474442 2.408484 0.676938 2.359280 2.412047 0.662954 2.359884 2.446885 4.452374 -3.012165 10.652755 20.579121 -16.174460 0.000002 0.000001 -0.000000 0.466543 3.315904 -7.388250 -20.565582 12.331970 -49.348984 0.000127 -98.324965 0.000133 -8.566236 -0.277633 2.871821 -6.747710 3.075035 19.705625 3.939060 7.948713 0.746807 -0.579486 1.575004 2.538707 -0.000000 -0.000001 -0.000000 0.039116 0.734387 -6.097225 0.039098 0.734396 -6.097245 0.039146 0.734387 -6.097234 -0.000003 -0.000001 -0.000000 0.037382 0.718049 -5.961044 0.053222 0.856232 -7.113875 0.056162 0.879483 -7.308068 -0.000001 -0.000001 -0.000001 0.055364 0.873261 -7.256022 0.078047 1.035851 -8.616827 0.082717 1.066271 -8.871979 0.000003 -0.000000 -0.000001 0.810911 5.216433 -9.719448 0.102005 -2.832138 -10.693145 0.109074 1.223118 -10.190431 -0.000001 0.000001 -0.000001 -2.198517 -17.279605 -5.611134 -79.839024 59.732928 105.922123 -0.000432 97.269632 0.000452 18.261785 7.959257 8.318349 -0.218068 -8.294425 -20.435429 4.637192 -8.634127 -0.225408 -1.273762 0.137313 -2.094877 -0.000003 -0.000001 0.000002 0.023845 -0.576498 4.736081 0.023839 -0.576503 4.736096 0.023841 -0.576484 4.736083 -0.000000 -0.000002 0.000001 0.007555 -0.324541 2.663980 0.048657 -0.822818 6.768011 0.060327 -0.915860 7.537582 0.000000 -0.000001 0.000000 0.001498 -0.144290 1.183969 0.096086 -1.154261 9.516451 0.130120 -1.341563 11.079262 0.000000 -0.000001 0.000001 0.000002 -0.000002 0.000001 0.219958 -1.738406 14.420765 0.219949 -1.738397 14.420739 -0.000000 0.000004 0.000001 -22.135765 10.921149 28.209943 28.570242 -9.587142 1.824645 -6.686261 -0.176790 -23.403677 -7.765228 0.000017 0.000003 -0.000000 -0.000002 -0.000000 -16.658765 -9.843313 -20.904544 37.382390 9.354339 -1.720136 -22.526982 -2.886148 8.228016 -2.671863 0.000017 0.000006 -0.000001 0.000002 0.000000 
